<?xml version="1.0" standalone="no"?>
<!DOCTYPE svg PUBLIC "-//W3C//DTD SVG 20010904//EN"
 "http://www.w3.org/TR/2001/REC-SVG-20010904/DTD/svg10.dtd">
<svg version="1.0" xmlns="http://www.w3.org/2000/svg"
 width="1573.000000pt" height="1133.000000pt" viewBox="0 0 1573.000000 1133.000000"
 preserveAspectRatio="xMidYMid meet">

<g transform="translate(0.000000,1133.000000) scale(0.100000,-0.100000)"
fill="#000000" stroke="none">
<path d="M10183 9503 c-12 -2 -34 -18 -48 -34 l-25 -31 0 -324 0 -324 -2977 0
-2976 0 -41 -24 c-23 -13 -51 -42 -64 -64 l-22 -40 0 -1536 c0 -1512 0 -1536
-19 -1536 -32 0 -74 19 -105 48 -17 16 -66 104 -117 211 -131 269 -202 360
-339 425 -72 34 -87 35 -490 25 -127 -3 -155 0 -223 19 -152 43 -237 104 -287
205 -26 54 -33 86 -51 242 -23 208 -41 301 -75 404 -22 67 -23 76 -9 83 39 22
133 108 159 147 34 49 30 80 -16 114 -36 27 -63 15 -130 -59 -28 -30 -52 -53
-54 -52 -1 2 -6 69 -9 148 -4 80 -11 152 -16 161 -11 22 -63 31 -94 17 -34
-15 -38 -40 -33 -164 3 -57 4 -104 2 -104 -1 0 -33 37 -70 83 -80 97 -91 107
-120 107 -27 0 -64 -44 -64 -76 0 -22 46 -87 139 -194 44 -51 44 -51 15 -44
-43 10 -105 43 -142 75 -39 34 -70 37 -106 8 -39 -31 -35 -69 14 -113 74 -67
201 -116 299 -116 l39 0 26 -71 c33 -90 52 -197 65 -375 18 -240 59 -354 160
-445 96 -89 244 -146 439 -170 82 -10 129 -10 258 1 235 21 261 20 316 -13 82
-48 145 -141 235 -347 67 -153 129 -248 191 -293 54 -40 127 -67 177 -67 l35
0 0 -674 c0 -452 4 -684 11 -703 5 -15 22 -40 37 -56 58 -61 -201 -57 3588
-57 3152 0 3468 1 3511 16 60 20 81 38 104 89 17 38 19 82 19 731 l0 692 36
17 c64 30 95 35 314 50 118 8 241 20 273 26 120 24 171 90 243 319 54 171 90
232 167 283 74 49 171 80 370 116 93 17 194 40 225 51 148 52 251 169 298 338
17 60 18 61 80 92 186 91 321 256 257 312 -48 41 -93 31 -134 -29 -28 -40
-138 -137 -147 -129 -2 2 13 25 32 50 43 56 95 164 103 212 10 60 -49 99 -105
70 -20 -10 -35 -32 -50 -70 -12 -31 -33 -73 -47 -93 l-25 -38 0 108 c0 94 -2
109 -20 127 -30 30 -83 27 -109 -6 -19 -24 -21 -41 -21 -153 l-1 -126 -22 39
c-54 93 -61 101 -101 104 -47 4 -76 -19 -76 -60 0 -63 84 -186 171 -252 l56
-42 -12 -45 c-19 -71 -32 -95 -71 -139 -71 -79 -137 -106 -370 -155 -266 -56
-338 -89 -454 -205 -88 -87 -149 -198 -176 -320 -23 -104 -49 -155 -87 -174
-43 -20 -177 -36 -302 -36 -95 -1 -214 -12 -269 -26 l-26 -6 0 1496 c0 1249
-2 1502 -14 1529 -16 39 -61 82 -99 96 -18 7 -171 11 -433 11 l-404 0 0 325 0
325 -27 30 c-22 23 -39 31 -73 34 -25 2 -55 2 -67 -1z m-2463 -840 c39 -50 3
-123 -60 -123 -35 0 -70 41 -70 79 0 67 88 97 130 44z"/>
<path d="M4209 3663 c-23 -32 -46 -64 -52 -70 -7 -10 42 -13 239 -13 l249 1
28 62 c15 34 27 65 27 70 0 4 -101 7 -225 7 l-224 0 -42 -57z"/>
<path d="M4841 3698 c-5 -13 -16 -40 -25 -62 -9 -21 -16 -42 -16 -47 0 -5 340
-8 797 -7 l798 3 11 62 c6 35 9 65 6 68 -3 3 -356 5 -784 5 l-778 0 -9 -22z"/>
<path d="M6567 3713 c-3 -5 -8 -30 -12 -57 -3 -27 -9 -55 -12 -62 -4 -12 171
-14 1121 -14 896 0 1125 3 1121 13 -2 6 -9 38 -15 70 l-11 57 -1094 0 c-602 0
-1096 -3 -1098 -7z"/>
<path d="M8914 3688 c4 -18 9 -50 13 -70 l6 -38 799 0 799 0 -7 23 c-4 12 -16
42 -28 67 l-21 45 -784 3 -784 2 7 -32z"/>
<path d="M10627 3714 c-3 -3 8 -35 26 -70 l31 -64 243 0 c134 0 243 3 243 6 0
4 -20 35 -46 70 l-45 64 -223 0 c-122 0 -225 -3 -229 -6z"/>
<path d="M4042 3418 c-57 -79 -72 -102 -72 -110 0 -5 122 -8 271 -8 l270 0 35
76 c19 41 34 79 34 85 0 5 -100 9 -250 9 l-249 0 -39 -52z"/>
<path d="M4741 3453 c-22 -43 -59 -142 -53 -147 3 -3 376 -6 828 -6 l824 0 4
23 c14 64 26 129 26 137 0 6 -304 10 -810 10 -761 0 -810 -1 -819 -17z"/>
<path d="M6510 3413 c-6 -32 -13 -70 -16 -85 l-6 -28 1170 0 c643 0 1171 2
1174 5 5 6 -18 141 -28 156 -3 5 -467 9 -1144 9 l-1139 0 -11 -57z"/>
<path d="M8960 3453 c1 -10 6 -47 13 -83 l12 -65 828 -3 c668 -2 827 0 827 11
0 7 -13 44 -29 82 l-30 70 -810 3 c-768 2 -811 1 -811 -15z"/>
<path d="M10747 3464 c-3 -4 12 -42 34 -85 l39 -79 270 0 c149 0 270 3 270 8
0 4 -25 42 -56 85 l-55 77 -248 0 c-136 0 -250 -3 -254 -6z"/>
<path d="M3818 3091 c-38 -55 -68 -102 -68 -105 0 -3 136 -6 303 -6 l302 0 48
95 c26 52 47 100 47 105 0 6 -103 10 -282 10 l-283 0 -67 -99z"/>
<path d="M4591 3091 c-22 -55 -41 -102 -41 -105 0 -3 389 -6 865 -6 l865 0 4
23 c9 41 36 179 36 183 0 2 -380 4 -844 4 l-844 0 -41 -99z"/>
<path d="M6466 3173 c-5 -17 -36 -180 -36 -189 0 -2 556 -4 1236 -4 1172 0
1235 1 1230 18 -2 9 -7 31 -10 47 -3 17 -10 56 -16 88 l-11 57 -1194 0 c-1128
0 -1194 -1 -1199 -17z"/>
<path d="M9011 3178 c0 -7 8 -53 17 -103 l17 -90 869 -3 c693 -2 867 0 863 10
-3 7 -22 55 -43 106 l-38 92 -843 0 c-668 0 -843 -3 -842 -12z"/>
<path d="M10916 3093 c25 -54 49 -101 53 -106 4 -4 143 -6 309 -5 l303 3 -68
100 -68 100 -287 3 -287 2 45 -97z"/>
<path d="M3321 2741 c-13 -3 -34 -19 -45 -34 -19 -26 -21 -44 -24 -200 -3
-189 6 -228 58 -254 20 -10 912 -13 4353 -13 3727 0 4332 2 4356 14 46 24 55
57 59 225 5 184 -8 234 -64 257 -28 12 -674 14 -4351 13 -2375 -1 -4329 -4
-4342 -8z"/>
</g>
</svg>
